# xmcd
#
# Track frame offsets:
#	182
#	14302
#	26472
#	43412
#	61670
#	77312
#	95046
#	110573
#	122774
#	138483
#
# Disc length: 2012 seconds
#
# Revision: 0
# Processed by: cddbd v1.5.1PL0 Copyright (c) Steve Scherf et al.
# Submitted via: dBpowerAMP V4.0
#
DISCID=7d07da0a
DTITLE=Su Sherrie - Su Sherrie With The Soft Touch
DYEAR=1995
DGENRE=Jazz
TTITLE0=Raining 
TTITLE1=For No Reason
TTITLE2=There was a Time When we loved
TTITLE3=We Don't Make Love
TTITLE4=Fire In The Morning
TTITLE5=I'm The One
TTITLE6=Still Thinking Of You
TTITLE7=The Hurting Doesn't Go Away
TTITLE8=Come Back Baby
TTITLE9=Just Can't Leave Your Love Alone
EXTD="Su Sherrie With The Soft Touch"
EXTT0=
EXTT1=
EXTT2=
EXTT3=
EXTT4=
EXTT5=
EXTT6=
EXTT7=
EXTT8=
EXTT9=
PLAYORDER=
